<?xml version="1.0" encoding="UTF-8" standalone="no"?>
<svg
   width="37.491199"
   height="25.061483"
   viewBox="0 0 37.491199 25.061483"
   fill="none"
   class="h-full w-auto"
   version="1.1"
   id="svg1"
   xmlns="http://www.w3.org/2000/svg"
   xmlns:svg="http://www.w3.org/2000/svg">
  <defs
     id="defs1" />
  <path
     d="m 8.94141,0 c 1.88649,1.8e-5 3.49879,0.444234 4.83299,1.332034 1.3343,0.88788 2.3531,2.18627 3.0557,3.89453 0.7024,1.70814 1.0527,3.76081 1.0527,6.16112 v 2.2852 c 0,2.4003 -0.3503,4.4529 -1.0527,6.1611 -0.7026,1.7083 -1.7214,3.0066 -3.0557,3.8945 -1.3342,0.8879 -2.9464,1.333 -4.83299,1.333 -1.88656,0 -3.49876,-0.4452 -4.83301,-1.333 -1.33429,-0.8879 -2.35313,-2.1862 -3.05567,-3.8945 C 0.350293,18.125784 1.7e-5,16.073184 0,13.672884 v -2.2852 C 3.7e-5,8.987334 0.350272,6.934714 1.05273,5.226564 1.75527,3.518294 2.77411,2.219914 4.1084,1.332034 5.44263,0.444274 7.05489,3e-6 8.94141,0 Z m 28.51559,9.172854 -6.1103,6.57713 6.1445,6.7149 -2.416,2.2851 -6.0762,-6.6123 -6.042,6.6123 -2.3818,-2.2851 6.1797,-6.6807 -6.1797,-6.57715 2.417,-2.31934 6.1103,6.50779 5.9727,-6.50779 z M 4.47949,19.470684 c 0.10882,0.2281 0.22681,0.442 0.35352,0.6406 0.89758,1.4071 2.26668,2.1114 4.1084,2.1114 1.84169,-10e-5 3.20529,-0.7026 4.09079,-2.1114 0.8855,-1.407 1.3291,-3.5533 1.3291,-6.4384 v -2.2852 c 0,-0.8603 -0.0393,-1.6549 -0.1181,-2.38378 z M 8.94141,2.837894 c -1.84167,0 -3.21082,0.70435 -4.1084,2.11132 -0.89755,1.40706 -1.34664,3.55348 -1.34668,6.43847 v 2.2852 c 0,1.0269 0.05719,1.9601 0.1709,2.7998 L 13.5098,5.881834 C 13.3681,5.541624 13.2092,5.230404 13.0322,4.949214 12.1467,3.542314 10.783,2.837924 8.94141,2.837894 Z"
     fill="currentColor"
     id="path1"
     style="display:inline;fill:#48d597;fill-opacity:1" />
</svg>
